<?xml version="1.0" encoding="UTF-8"?>
<svg id="linkedin" xmlns="http://www.w3.org/2000/svg" viewBox="0 0 183.8 179.9">
  <defs>
    <style>
      .cls-1 {
        fill: #2e99f4;
      }
    </style>
  </defs>
  <path class="cls-1" d="M42.9,20.4c0,5.7-2.2,10.9-6,14.6-4,3.9-9.4,6-15.8,6C8.9,41,0,32.4,0,20.5S9.1,0,21.6,0s21,8.4,21.3,20.4Z"/>
  <rect class="cls-1" x="3.8" y="47.7" width="36" height="132.2"/>
  <path class="cls-1" d="M183.8,105.2v74.7h-40V112.4c0-12.6-9.6-23.2-20.9-23.2-9.8,0-16.3,0-21.1,10.4-.8,1.6-2,7.8-2,10.8v69.5H60V47.7h40.7l1.1,11.2c5.9-5.4,16.1-11.2,32.8-11.2,23.7,0,49.2,18,49.2,57.5Z"/>
</svg>