<?xml version="1.0" encoding="utf-8"?>
<!-- Generator: Adobe Illustrator 26.5.0, SVG Export Plug-In . SVG Version: 6.00 Build 0)  -->
<svg version="1.1" id="linkedin" xmlns="http://www.w3.org/2000/svg" xmlns:xlink="http://www.w3.org/1999/xlink" x="0px" y="0px"
	 viewBox="0 0 183.8 179.9" style="enable-background:new 0 0 183.8 179.9;" xml:space="preserve">
<style type="text/css">
	.st0{fill:#FFFFFF;}
</style>
<path class="st0" d="M42.9,20.4c0,5.7-2.2,10.9-6,14.6c-4,3.9-9.4,6-15.8,6C8.9,41,0,32.4,0,20.5C0,8.6,9.1,0,21.6,0
	C33.9,0,42.6,8.4,42.9,20.4z"/>
<rect x="3.8" y="47.7" class="st0" width="36" height="132.2"/>
<path class="st0" d="M183.8,105.2v74.7h-40v-67.5c0-12.6-9.6-23.2-20.9-23.2c-9.8,0-16.3,0-21.1,10.4c-0.8,1.6-2,7.8-2,10.8v69.5H60
	V47.7h40.7l1.1,11.2c5.9-5.4,16.1-11.2,32.8-11.2C158.3,47.7,183.8,65.7,183.8,105.2z"/>
</svg>
