<?xml version="1.0" encoding="UTF-8"?>
<svg id="Lager_1" data-name="Lager 1" xmlns="http://www.w3.org/2000/svg" viewBox="0 0 48 48">
  <defs>
    <style>
      .cls-1 {
        fill: #fff;
      }
    </style>
  </defs>
  <path class="cls-1" d="M47.91,7.51v.05c-.09,.09,.03,.18,0,.27v31c-.02,.2-.03,.41-.06,.61-.24,1.51-.82,2.87-1.79,4.04-1.73,2.09-3.98,3.14-6.68,3.14-10.23,.01-20.46,0-30.7,0-.48,0-.96-.04-1.43-.11-2.05-.34-3.77-1.29-5.13-2.88-1.39-1.62-2.03-3.53-2.03-5.65,0-9.78,0-19.56,0-29.34,0-.48,.03-.96,.11-1.43C.56,4.93,1.67,3.07,3.52,1.67,4.68,.8,5.99,.27,7.44,.08c.19-.03,.39,0,.58-.08h31.97c.14,.07,.3,.03,.45,.05,1.19,.15,2.31,.49,3.33,1.12,2.36,1.45,3.76,3.53,4.1,6.29,0,.03,.02,.04,.04,.05Zm-28.46,4.35c-.81,0-1.62,0-2.44,0-.29,0-.34,.05-.33,.33,0,.68-.14,1.34-.36,1.98-1.46,4.19-2.91,8.37-4.37,12.56-.65,1.88-1.3,3.75-1.96,5.63-.16,.45-.03,.51,.37,.51,1.12-.01,2.25,0,3.37,0,.07,0,.14,0,.2,0,.17,0,.28-.09,.34-.25,.02-.05,.03-.1,.05-.15,.34-1.05,.68-2.09,1.01-3.14,.14-.42,.27-.84,.4-1.26,.04-.12,.08-.19,.22-.17,.03,0,.06,0,.09,0,2.3,0,4.6,0,6.9,0,.05,0,.09,0,.14,0,.09,0,.15,.02,.17,.11,.01,.05,.03,.1,.05,.15,.5,1.45,1,2.91,1.5,4.36,.1,.29,.16,.33,.46,.33,1.31,0,2.61,0,3.92,0,.05,0,.11,0,.16,0,.17-.02,.23-.09,.2-.26-.01-.08-.05-.16-.07-.24-2-5.65-4.01-11.3-6.01-16.95-.39-1.09-.77-2.19-1.16-3.28-.09-.25-.12-.27-.38-.27-.06,0-.12,0-.18,0-.77,0-1.53,0-2.3,0Zm16.77,13.14c0-2.53,0-5.07,0-7.6,0-.33-.04-.37-.36-.37-.7,0-1.4,0-2.09,0-.57,0-1.14,0-1.71,0-.22,0-.28,.07-.3,.28,0,.05,0,.09,0,.14,0,5.02,0,10.04,0,15.06,0,.07,0,.14,.01,.2,.03,.16,.11,.23,.28,.25,.05,0,.11,0,.16,0,1.21,0,2.41,0,3.62,0,.05,0,.11,0,.16,0,.15-.02,.22-.08,.23-.23,0-.09,0-.18,0-.27,0-2.49,0-4.97,0-7.46Zm-2.37-9.64c1.16,0,1.92-.41,2.37-1.29,.4-.78,.4-1.59,.04-2.39-.31-.68-.84-1.1-1.57-1.25-.36-.08-.72-.1-1.08-.03-.93,.18-1.59,.68-1.93,1.57-.16,.41-.17,.85-.11,1.28,.12,.82,.51,1.47,1.27,1.85,.37,.19,.77,.28,1.02,.27Z"/>
  <path class="cls-1" d="M17,23.84c.81-2.77,1.76-5.48,2.47-8.26,.77,2.77,1.69,5.5,2.56,8.26h-5.03Z"/>
</svg>