<?xml version="1.0" encoding="UTF-8"?>
<svg id="Lager_1" data-name="Lager 1" xmlns="http://www.w3.org/2000/svg" viewBox="0 0 48 48">
  <defs>
    <style>
      .cls-1 {
        fill: #fff;
      }

      .cls-2 {
        fill: #ff0063;
      }
    </style>
  </defs>
  <path class="cls-1" d="M48,8.46v31.11c-.01,.08-.05,.15-.04,.23,0,.21-.02,.41-.06,.61-.49,2.45-1.77,4.36-3.89,5.69-1.4,.89-2.95,1.29-4.6,1.29-10.26,0-20.52,0-30.79,0-.08,0-.15,0-.23,0-1.29-.04-2.53-.29-3.67-.9C1.65,44.86,.1,42.27,0,38.8c0-9.87,0-19.73,0-29.6,0-.55,.05-1.1,.15-1.63C.64,5.11,1.94,3.2,4.07,1.86c1.28-.81,2.7-1.2,4.21-1.26h31.5c.46,.02,.91,.06,1.36,.15,2.9,.62,4.97,2.27,6.2,4.97,.35,.78,.59,1.6,.63,2.46-.01,.1,.03,.19,.04,.28Zm-12.56,12.73c0-3.3,0-6.61,0-9.91,0-.08,0-.15,0-.23-.01-.13-.05-.17-.19-.18-.05,0-.11,0-.16,0-1.23,0-2.45,0-3.68,0q-.42,0-.42,.41c0,1.93,0,3.87,0,5.8,0,.06,0,.12,0,.18,0,.12-.05,.14-.15,.13-.45-.04-.91-.06-1.37-.04-.72,.02-1.43,.1-2.13,.25-1.79,.38-3.34,1.22-4.58,2.58-1.26,1.37-1.97,2.99-2.12,4.84-.1,1.2-.02,2.39,.31,3.55,.57,2.02,1.78,3.53,3.67,4.46,1.22,.61,2.53,.9,3.9,.95,.99,.04,1.98-.03,2.96-.17,1.3-.19,2.57-.51,3.78-1.01,.29-.12,.33-.18,.32-.5-.02-.38-.06-.76-.08-1.14-.03-.78-.04-1.57-.04-2.35,0-2.54,0-5.09,0-7.63Zm-17.98,1.99c0-3.39,0-6.78,0-10.16,0-.38-.07-.44-.43-.44-1.19,0-2.38,0-3.57,0-.43,0-.47,.05-.47,.47,0,2.73,0,5.47,0,8.2,0,4,0,8.01,0,12.01,0,.1,0,.2,.02,.3,.04,.14,.1,.19,.24,.2,.05,0,.09,0,.14,0,1.23,0,2.45,0,3.68,0,.04,0,.08,0,.11,0,.18-.02,.26-.1,.28-.27,0-.09,0-.18,0-.27,0-3.34,0-6.68,0-10.03Z"/>
  <path class="cls-2" d="M47.96,8.18s.03-.06,.04-.08v.37c0-.09-.05-.18-.04-.28Z"/>
  <path class="cls-2" d="M48,39.89s-.03-.06-.04-.09c-.01-.08,.03-.16,.04-.23v.32Z"/>
  <path class="cls-1" d="M30.99,25.62c0,1.36,0,2.72,0,4.09,0,.05,0,.11,0,.16,0,.1-.03,.15-.13,.18-.16,.03-.31,.06-.47,.07-.27,0-.53,.03-.8,.03-1.05,0-2.05-.17-2.91-.83-.55-.42-.92-.99-1.16-1.63-.28-.76-.39-1.54-.34-2.35,.03-.54,.1-1.06,.29-1.56,.35-.9,.99-1.56,1.82-2.04,.95-.56,1.99-.74,3.08-.62,.14,.02,.27,.03,.41,.06,.22,.05,.22,.04,.22,.26,0,.18,0,.37,0,.55v3.65Z"/>
</svg>