<?xml version="1.0" encoding="UTF-8"?>
<svg id="Lager_1" data-name="Lager 1" xmlns="http://www.w3.org/2000/svg" viewBox="0 0 48 48">
  <defs>
    <style>
      .cls-1 {
        fill: #eaeaea;
      }

      .cls-2 {
        fill: #fff;
      }
    </style>
  </defs>
  <path class="cls-1" d="M4.22,1.24c13.4,0,26.8,0,40.21,0,.07,0,.13,0,.1,.09,0,.03-.02,.06-.02,.08-.07,.76-.14,1.51-.2,2.27-.07,.79-.14,1.59-.21,2.38-.09,.96-.17,1.91-.26,2.87-.09,.96-.17,1.92-.25,2.88-.09,1.04-.19,2.08-.28,3.12-.09,.96-.17,1.92-.25,2.88-.1,1.12-.2,2.24-.3,3.37-.1,1.13-.2,2.25-.3,3.38-.11,1.21-.22,2.41-.33,3.62-.1,1.13-.2,2.25-.3,3.38-.11,1.21-.22,2.41-.33,3.62-.09,1.04-.18,2.09-.28,3.13-.12,1.33-.24,2.65-.35,3.98,0,.07-.03,.11-.11,.13-.53,.14-1.07,.29-1.6,.44-3.32,.92-6.63,1.84-9.95,2.76-1.59,.44-3.18,.88-4.76,1.32-.06,.02-.11,.03-.17,0-1.63-.45-3.25-.91-4.88-1.36-2.69-.75-5.38-1.49-8.07-2.24-1.12-.31-2.23-.62-3.35-.93-.06-.02-.1-.03-.1-.11-.02-.24-.04-.49-.06-.73-.08-.88-.15-1.76-.23-2.63-.09-.96-.17-1.92-.26-2.88-.09-.96-.17-1.92-.25-2.88-.09-.96-.17-1.92-.26-2.88-.08-.88-.15-1.76-.23-2.63-.09-1.04-.19-2.08-.28-3.12-.1-1.13-.2-2.25-.3-3.38-.1-1.13-.2-2.25-.3-3.38-.09-1.04-.18-2.09-.28-3.13-.1-1.13-.2-2.25-.3-3.38-.09-1.04-.18-2.09-.28-3.13-.11-1.21-.22-2.41-.33-3.62-.1-1.1-.2-2.19-.29-3.29Zm20.15,31.72s-.02,.01-.02,.02c-.02,0-.03-.01-.05-.02-1.08-.29-2.16-.58-3.24-.87-.75-.2-1.49-.4-2.24-.6-.07-.02-.1-.05-.1-.13-.01-.22-.04-.44-.06-.66-.09-1.04-.19-2.09-.27-3.13,0-.11-.05-.14-.16-.14-1.59,0-3.18,0-4.78,0-.03,0-.05,0-.08,0-.06,0-.07,.02-.06,.08,.07,.83,.15,1.65,.22,2.48,.08,.87,.16,1.75,.24,2.62,.08,.87,.16,1.75,.23,2.62,0,.1,.04,.14,.14,.16,2.82,.78,5.64,1.56,8.46,2.34,.59,.16,1.19,.33,1.78,.49,0,1.59,0,3.18,0,4.77,0,.11,0,.22,0,.33,0,.09,.02,.13,.12,.1,.16-.05,.33-.09,.49-.14,.92-.26,1.85-.51,2.77-.77,1.07-.3,2.15-.6,3.22-.89,.91-.25,1.83-.51,2.74-.76,.99-.28,1.98-.55,2.98-.83,.3-.08,.6-.17,.9-.25,.05-.01,.11-.03,.12-.1,.01-.18,.03-.37,.05-.55,.02-.29,.05-.58,.07-.86,.03-.3,.05-.61,.08-.91,.02-.28,.05-.55,.07-.83,.03-.3,.06-.6,.08-.9,.03-.29,.05-.58,.07-.86,.03-.3,.06-.6,.08-.9,.03-.28,.05-.56,.07-.84,.03-.39,.07-.78,.11-1.16,.03-.28,.05-.56,.07-.84,.03-.3,.06-.61,.08-.91,.02-.28,.05-.55,.07-.83,.03-.39,.07-.78,.11-1.17,.03-.28,.05-.56,.07-.84,.03-.3,.06-.59,.08-.89,.03-.28,.05-.57,.07-.85,.03-.38,.07-.76,.1-1.14,.03-.29,.05-.58,.07-.86,.03-.38,.07-.76,.1-1.14,.03-.28,.05-.56,.07-.84,.03-.39,.07-.78,.11-1.16,.03-.28,.05-.57,.07-.85,.03-.3,.06-.59,.08-.89,.03-.28,.05-.57,.07-.85,.03-.38,.07-.76,.1-1.14,.03-.29,.05-.58,.07-.86,.03-.31,.06-.61,.08-.92,.03-.28,.05-.55,.08-.83,.03-.3,.05-.59,.08-.89,.03-.29,.05-.58,.08-.88,.03-.29,.05-.58,.08-.86,.03-.29,.05-.58,.07-.86,.03-.39,.07-.78,.11-1.17,.03-.28,.05-.56,.07-.84,.03-.3,.05-.61,.08-.91,.02-.28,.05-.55,.07-.83,.03-.38,.07-.76,.1-1.14,.03-.29,.05-.58,.08-.86,.02-.15,.02-.16-.14-.16-5.39,0-10.78,0-16.17,0-.15,0-.15,0-.15,.15,0,1.63,0,3.26,0,4.89,0,0-.02,0-.02,.01-.04,0-.08,0-.12,0-4.12,0-8.24,0-12.36,0-.01,0-.02,0-.03,0-.08-.01-.12,.01-.1,.11,.02,.11,.02,.23,.03,.34,.06,.69,.12,1.39,.19,2.08,.07,.79,.14,1.58,.21,2.37,.01,.15,.01,.15,.16,.15,3.97,0,7.94,0,11.91,0,.04,0,.08,0,.12,0,0,0,.01,0,.02,0,0,1.72,0,3.44,0,5.15,0,0-.01,0-.02,0-.03,0-.07,0-.1,0-3.83,0-7.66,0-11.49,0-.02,0-.04,0-.06,0-.06,0-.08,.02-.07,.08,.01,.11,.02,.21,.03,.32,.07,.8,.14,1.59,.21,2.39,.06,.7,.13,1.41,.19,2.11,.01,.13,.06,.15,.17,.15,3.66,0,7.32,0,10.98,0,.04,0,.09,0,.13,0,0,0,.02,.01,.02,.02,0,2.68,0,5.36,0,8.04Z"/>
  <path class="cls-2" d="M24.37,9.64c0-1.63,0-3.26,0-4.89,0-.15,0-.15,.15-.15,5.39,0,10.78,0,16.17,0,.16,0,.15,0,.14,.16-.03,.29-.05,.58-.08,.86-.03,.38-.07,.76-.1,1.14-.03,.28-.05,.55-.07,.83-.03,.3-.05,.61-.08,.91-.03,.28-.05,.56-.07,.84-.04,.39-.07,.78-.11,1.17-.03,.29-.05,.58-.07,.86-.03,.29-.05,.58-.08,.86-.03,.29-.05,.58-.08,.88-.03,.3-.05,.59-.08,.89-.03,.28-.05,.55-.08,.83-.03,.31-.06,.61-.08,.92-.03,.29-.05,.58-.07,.86-.03,.38-.07,.76-.1,1.14-.03,.28-.05,.57-.07,.85-.03,.3-.06,.59-.08,.89-.03,.28-.05,.57-.07,.85-.03,.39-.07,.78-.11,1.16-.03,.28-.05,.56-.07,.84-.03,.38-.07,.76-.1,1.14-.03,.29-.05,.58-.07,.86-.03,.38-.07,.76-.1,1.14-.03,.28-.05,.57-.07,.85-.03,.3-.06,.59-.08,.89-.03,.28-.05,.56-.07,.84-.04,.39-.07,.78-.11,1.17-.02,.28-.05,.55-.07,.83-.03,.3-.06,.61-.08,.91-.03,.28-.05,.56-.07,.84-.03,.39-.07,.78-.11,1.16-.03,.28-.05,.56-.07,.84-.03,.3-.06,.6-.08,.9-.03,.29-.05,.58-.07,.86-.03,.3-.06,.6-.08,.9-.03,.28-.05,.55-.07,.83-.03,.3-.06,.61-.08,.91-.03,.29-.05,.58-.07,.86-.02,.18-.03,.37-.05,.55,0,.07-.06,.09-.12,.1-.3,.08-.6,.17-.9,.25-.99,.28-1.98,.55-2.98,.83-.91,.25-1.83,.51-2.74,.76-1.07,.3-2.15,.6-3.22,.89-.92,.26-1.85,.51-2.77,.77-.16,.05-.33,.08-.49,.14-.1,.03-.12,0-.12-.1,0-.11,0-.22,0-.33,0-1.59,0-3.18,0-4.77,0,0,0-.01,.01-.02,.04,0,.07-.02,.11-.03,2.66-.74,5.32-1.48,7.99-2.21,.71-.2,1.42-.39,2.13-.59,.05-.01,.1-.02,.11-.1,.05-.59,.1-1.18,.15-1.77,.07-.78,.14-1.56,.21-2.34,.07-.8,.14-1.6,.21-2.4,.07-.79,.14-1.57,.21-2.36,.08-.88,.16-1.76,.24-2.63,.06-.7,.12-1.41,.19-2.11,.07-.79,.14-1.59,.21-2.38,.07-.79,.14-1.57,.21-2.36,.07-.8,.14-1.59,.21-2.39,.07-.79,.14-1.58,.21-2.37,.07-.8,.14-1.59,.21-2.39,.01-.14,0-.14-.13-.14-4.11,0-8.22,0-12.33,0-.05,0-.1,0-.14,0Z"/>
  <path class="cls-2" d="M24.37,24.92s.08,0,.12,0c1.98,0,3.96,0,5.94,0,.11,0,.14,.02,.13,.13-.08,.8-.15,1.6-.22,2.4-.07,.78-.14,1.56-.21,2.33-.05,.53-.1,1.06-.14,1.59,0,.09-.06,.11-.12,.12-1.35,.36-2.7,.73-4.05,1.09-.45,.12-.9,.24-1.36,.36-.03,0-.06,0-.09,.01,0-2.68,0-5.36,0-8.04Z"/>
  <path class="cls-2" d="M24.37,14.7s.09,0,.13,0c2.27,0,4.54,0,6.81,0,.15,0,.15,0,.14,.14-.11,1.24-.22,2.48-.33,3.72-.04,.4-.07,.79-.1,1.19,0,.08-.03,.11-.12,.11-2.15,0-4.29,0-6.44,0-.03,0-.06,0-.09,0,0-1.72,0-3.44,0-5.15Z"/>
</svg>