<?xml version="1.0" encoding="UTF-8"?>
<svg id="Lager_1" data-name="Lager 1" xmlns="http://www.w3.org/2000/svg" viewBox="0 0 48 48">
  <defs>
    <style>
      .cls-1 {
        fill: #eaeaea;
      }

      .cls-2 {
        fill: #fff;
      }
    </style>
  </defs>
  <path class="cls-1" d="M24,1.04c6.69,0,13.38,0,20.08,0,.19,0,.19,0,.18,.18-.08,.9-.16,1.8-.24,2.7-.07,.77-.14,1.54-.2,2.31-.08,.9-.16,1.81-.24,2.71-.07,.78-.14,1.56-.21,2.34-.08,.89-.16,1.78-.24,2.67-.07,.77-.14,1.55-.21,2.32-.08,.9-.16,1.8-.24,2.7-.07,.77-.14,1.55-.21,2.32-.08,.89-.16,1.79-.24,2.68-.07,.78-.14,1.56-.21,2.34-.08,.89-.16,1.79-.24,2.68-.07,.77-.14,1.54-.21,2.31-.08,.9-.16,1.81-.24,2.71-.07,.77-.14,1.54-.2,2.31-.08,.9-.16,1.81-.24,2.71-.07,.78-.14,1.56-.21,2.34-.03,.32-.06,.64-.08,.96,0,.12-.1,.11-.16,.13-.88,.25-1.76,.49-2.65,.73-4.4,1.22-8.8,2.43-13.2,3.67-.44,.12-.83,.11-1.27-.01-5.25-1.46-10.49-2.91-15.74-4.36-.13-.04-.17-.09-.18-.22-.09-1.09-.19-2.19-.29-3.28-.08-.89-.16-1.78-.23-2.67-.09-.99-.18-1.98-.27-2.98-.08-.89-.16-1.78-.23-2.67-.09-.99-.18-1.98-.27-2.98-.08-.89-.16-1.78-.23-2.67-.09-.99-.18-1.98-.27-2.98-.08-.89-.16-1.77-.23-2.66-.08-.89-.16-1.77-.24-2.66-.07-.78-.14-1.56-.21-2.34-.08-.89-.16-1.79-.24-2.68-.07-.78-.14-1.56-.21-2.34-.08-.89-.16-1.79-.24-2.68-.07-.77-.14-1.55-.21-2.32-.08-.9-.16-1.8-.24-2.7-.02-.18-.03-.35-.04-.53,0-.08,0-.12,.09-.11,.04,0,.08,0,.13,0,6.68,0,13.37,0,20.05,0Zm0,23.82v8.09s-.02,.01-.02,.02c-.03,0-.05-.02-.08-.03-1.8-.48-3.61-.97-5.41-1.45-.1-.03-.17-.05-.18-.18-.04-.58-.09-1.15-.15-1.72-.06-.69-.13-1.38-.18-2.07,0-.1-.04-.13-.14-.13-1.61,0-3.22,0-4.83,0-.11,0-.13,.03-.12,.13,.04,.45,.08,.9,.12,1.35,.1,1.08,.2,2.17,.3,3.25,.09,1.03,.19,2.06,.27,3.09,.01,.13,.06,.17,.17,.2,2.76,.77,5.52,1.54,8.29,2.31,.66,.18,1.32,.36,1.98,.54,0,1.69,0,3.38,0,5.07,0,.19,0,.18,.18,.13,.8-.23,1.6-.45,2.39-.68,1.1-.31,2.2-.61,3.29-.91,1.16-.32,2.33-.65,3.49-.98,.8-.22,1.6-.45,2.4-.67,.5-.14,1.01-.28,1.51-.42,.05-.02,.13-.02,.14-.1,.01-.08,.02-.16,.03-.25,.02-.25,.04-.5,.06-.75,.03-.4,.07-.79,.11-1.19,.02-.23,.04-.46,.06-.69,.03-.37,.07-.74,.11-1.1,.02-.25,.04-.51,.06-.76,.03-.4,.07-.79,.11-1.19,.02-.23,.04-.46,.06-.69,.03-.37,.07-.74,.11-1.1,.02-.25,.04-.51,.06-.76,.03-.4,.07-.79,.11-1.19,.02-.23,.04-.46,.06-.69,.04-.39,.07-.77,.11-1.16,.02-.24,.04-.48,.06-.72,.03-.38,.07-.75,.11-1.13,.02-.24,.04-.49,.06-.73,.03-.39,.07-.78,.11-1.17,.02-.23,.04-.47,.06-.71,.03-.38,.07-.75,.11-1.13,.02-.24,.04-.49,.06-.73,.03-.39,.07-.78,.11-1.17,.02-.23,.04-.47,.06-.71,.03-.37,.07-.75,.11-1.12,.02-.25,.04-.5,.06-.75,.03-.39,.07-.78,.11-1.17,.02-.23,.04-.47,.06-.71,.03-.37,.07-.74,.11-1.1,.03-.35,.06-.71,.09-1.07,.03-.4,.07-.79,.11-1.19,.02-.23,.04-.46,.06-.69,.04-.39,.07-.78,.11-1.17,.02-.23,.04-.47,.06-.71,.03-.38,.07-.75,.11-1.13,.02-.24,.04-.49,.06-.73,.03-.39,.07-.78,.11-1.17,.02-.23,.04-.47,.06-.71,.03-.37,.07-.75,.11-1.12,.03-.27,.05-.54,.08-.81,.02-.17,0-.19-.16-.19-5.41,0-10.82,0-16.23,0-.13,0-.17,.03-.17,.17,0,1.63,0,3.26,0,4.89,0,0-.02,0-.03,.01-.05,0-.09,0-.14,0-4.14,0-8.28,0-12.42,0,0,0-.02,0-.03,0-.12-.02-.13,.04-.12,.14,.02,.16,.03,.32,.05,.49,.06,.66,.12,1.32,.18,1.97,.08,.88,.16,1.76,.24,2.64,.07,.76,.14,1.53,.2,2.29,.08,.88,.16,1.76,.24,2.64,.07,.77,.14,1.54,.21,2.31,.08,.89,.17,1.79,.24,2.68,.01,.14,.05,.17,.19,.17,3.67,0,7.35,0,11.02,0,.05,0,.09,0,.14,0,0,0,.02,.01,.03,.02Z"/>
  <path class="cls-2" d="M24,9.5c0-1.63,0-3.26,0-4.89,0-.14,.04-.17,.17-.17,5.41,0,10.82,0,16.23,0,.17,0,.19,.02,.16,.19-.03,.27-.05,.54-.08,.81-.04,.37-.07,.75-.11,1.12-.02,.23-.04,.47-.06,.71-.04,.39-.07,.78-.11,1.17-.02,.24-.04,.49-.06,.73-.03,.38-.07,.75-.11,1.13-.02,.23-.04,.47-.06,.71-.04,.39-.07,.78-.11,1.17-.02,.23-.04,.46-.06,.69-.04,.4-.07,.79-.11,1.19-.03,.35-.06,.71-.09,1.07-.03,.37-.07,.74-.11,1.1-.02,.23-.04,.47-.06,.71-.04,.39-.07,.78-.11,1.17-.02,.25-.04,.5-.06,.75-.03,.37-.07,.75-.11,1.12-.02,.23-.04,.47-.06,.71-.04,.39-.07,.78-.11,1.17-.02,.24-.04,.49-.06,.73-.03,.38-.07,.75-.11,1.13-.02,.23-.04,.47-.06,.71-.04,.39-.07,.78-.11,1.17-.02,.24-.04,.49-.06,.73-.03,.38-.07,.75-.11,1.13-.02,.24-.04,.48-.06,.72-.03,.39-.07,.77-.11,1.16-.02,.23-.04,.46-.06,.69-.04,.4-.07,.79-.11,1.19-.02,.25-.04,.51-.06,.76-.03,.37-.07,.74-.11,1.1-.02,.23-.04,.46-.06,.69-.04,.4-.07,.79-.11,1.19-.02,.25-.04,.51-.06,.76-.03,.37-.07,.74-.11,1.1-.02,.23-.04,.46-.06,.69-.04,.4-.07,.79-.11,1.19-.02,.25-.04,.5-.06,.75,0,.08-.02,.17-.03,.25-.01,.08-.08,.08-.14,.1-.5,.14-1.01,.28-1.51,.42-.8,.22-1.6,.45-2.4,.67-1.16,.33-2.33,.65-3.49,.98-1.1,.31-2.2,.61-3.29,.91-.8,.22-1.6,.45-2.39,.68-.18,.05-.18,.05-.18-.13,0-1.69,0-3.38,0-5.07,0,0,0-.02,0-.03,.02,0,.05,0,.07-.01,3.39-.94,6.78-1.88,10.17-2.82,.1-.03,.14-.07,.14-.17,.02-.29,.05-.58,.07-.88,.07-.78,.14-1.57,.21-2.35,.07-.77,.14-1.55,.21-2.32,.07-.79,.14-1.59,.21-2.38,.07-.76,.14-1.53,.2-2.29,.08-.89,.16-1.77,.24-2.66,.07-.8,.14-1.59,.22-2.39,.02-.18,.02-.18-.16-.18-3.8,0-7.61,0-11.41,0-.06,0-.12,0-.18,0,0-1.73,0-3.46,0-5.18,.06,0,.12,0,.18,0,3.97,0,7.93,0,11.9,0,.12,0,.15-.03,.16-.15,.04-.53,.09-1.07,.14-1.6,.1-1.05,.2-2.1,.3-3.15,.02-.18,.01-.18-.17-.18-4.11,0-8.22,0-12.33,0-.06,0-.12,0-.18,0Z"/>
  <path class="cls-2" d="M24,24.86s.09,0,.14,0c1.98,0,3.96,0,5.94,0,.17,0,.17,0,.15,.17-.09,1.02-.18,2.04-.28,3.06-.1,1.09-.2,2.18-.3,3.27,0,.09-.04,.12-.12,.14-1.81,.48-3.63,.97-5.44,1.46-.03,0-.06,0-.1,.01,0-2.7,0-5.4,0-8.09Z"/>
  <path class="cls-1" d="M23.97,14.58s.02,0,.03,.01c0,1.73,0,3.46,0,5.18,0,0-.02,0-.03,.01-.06,0-.11,0-.17,0-2.12,0-4.24,0-6.36,0-.11,0-.16-.02-.17-.14-.05-.67-.12-1.34-.18-2.02-.07-.79-.14-1.58-.21-2.36-.02-.2-.03-.4-.05-.6,0-.07,.02-.08,.08-.08,.04,0,.07,0,.11,0,2.26,0,4.52,0,6.78,0,.06,0,.12,0,.18,0Z"/>
</svg>