<?xml version="1.0" encoding="UTF-8"?>
<svg id="Lager_1" data-name="Lager 1" xmlns="http://www.w3.org/2000/svg" viewBox="0 0 48 48">
  <defs>
    <style>
      .cls-1 {
        fill: #fff;
      }

      .cls-2 {
        fill: #fdfdfd;
      }
    </style>
  </defs>
  <path class="cls-1" d="M.59,39.14c0-10.11,0-20.22,0-30.33,.06-.03,.03-.08,.04-.12,.06-.6,.17-1.18,.36-1.75C2.14,3.48,5.26,1.22,8.92,1.22c10.04,0,20.09,0,30.13,0,.71,0,1.41,.08,2.1,.26,3.68,.95,6.22,4.23,6.22,8.06,0,9.65,0,19.31,0,28.96,0,.62-.06,1.23-.2,1.84-.73,3.31-3.41,5.84-6.75,6.38-.23,.04-.47,.03-.7,.11H8.19s-.05-.03-.08-.04c-1.52-.14-2.9-.65-4.13-1.56-1.74-1.29-2.83-3-3.24-5.13-.06-.31-.1-.63-.15-.95ZM40.45,21.25v-3.31c0-2.14,0-4.27,0-6.41,0-.28-.03-.31-.31-.31-1.23,0-2.47,0-3.7,0-.31,0-.33,.03-.33,.33,0,1.95,0,3.9,0,5.85,0,.17-.05,.2-.21,.19-1.25-.12-2.49-.04-3.71,.29-2.67,.71-4.58,2.31-5.64,4.87-.64,1.55-.69,3.16-.43,4.79,.47,2.93,2.13,4.85,4.95,5.78,1.33,.44,2.71,.52,4.1,.43,1.76-.11,3.47-.46,5.1-1.14,.26-.11,.3-.18,.28-.46-.07-.97-.11-1.93-.11-2.9,0-2.66,0-5.33,0-7.99Zm-23.82-.63c-.05-.1-.08-.16-.11-.21-.48-.97-1-1.92-1.54-2.86-.8-1.39-1.59-2.78-2.24-4.25-.13-.29-.31-.39-.62-.39-1.42,0-2.85,0-4.27,0-.1,0-.22-.02-.28,.08-.06,.1,.03,.18,.08,.26,1.92,3.25,3.84,6.5,5.76,9.75,.08,.13,.07,.22,0,.35-1.97,3.22-3.93,6.44-5.89,9.65-.03,.05-.07,.1-.09,.15-.07,.17-.02,.24,.16,.24,1.36,0,2.72,0,4.07,0,.08,0,.17,0,.25,0,.19,0,.31-.08,.4-.25,1.32-2.41,2.62-4.83,3.88-7.28,.02-.04,.03-.1,.09-.13,.06,.02,.07,.08,.1,.13,1.3,2.33,2.6,4.67,3.78,7.07,.14,.29,.33,.42,.65,.42,1.48,0,2.96,0,4.44,0,.12,0,.28,.06,.35-.05,.08-.14-.04-.27-.12-.39-2.02-3.31-4.03-6.62-6.05-9.92-.06-.09-.09-.16-.02-.28,1.92-3.16,3.84-6.32,5.75-9.49,.04-.07,.11-.13,.06-.23-.05-.09-.13-.09-.22-.09-1.38,0-2.75,0-4.13,0-.13,0-.23,.04-.3,.17-.18,.37-.37,.73-.56,1.09-1.06,2.02-2.2,4-3.19,6.06-.06,.12-.11,.23-.19,.38Z"/>
  <path class="cls-2" d="M39.73,46.82c.23-.08,.46-.07,.7-.11,3.34-.54,6.02-3.07,6.75-6.38,.13-.6,.2-1.22,.2-1.84,0-9.65,0-19.31,0-28.96,0-3.84-2.54-7.12-6.22-8.06-.69-.18-1.39-.26-2.1-.26-10.04,0-20.09,0-30.13,0-3.65,0-6.77,2.26-7.93,5.73-.19,.57-.3,1.15-.36,1.75,0,.04,.02,.09-.04,.12,0-2.49,0-4.99,0-7.48,0-.13,.02-.16,.16-.16,15.5,0,31,0,46.5,0,.11,0,.17-.01,.17,.15,0,15.16,0,30.31,0,45.47v.04h-7.68Z"/>
  <path class="cls-2" d="M.59,39.14c.05,.32,.09,.64,.15,.95,.42,2.13,1.5,3.84,3.24,5.13,1.22,.91,2.61,1.42,4.13,1.56,.03,0,.07,0,.08,.04-2.48,0-4.96,0-7.45,0-.13,0-.16-.03-.16-.16,0-2.51,0-5.02,0-7.52Z"/>
  <path class="cls-1" d="M36.1,25.6c0,1.36,0,2.73,0,4.09,0,.14-.04,.21-.18,.23-1.16,.13-2.31,.17-3.4-.34-.87-.4-1.42-1.09-1.75-1.97-.41-1.1-.46-2.24-.18-3.37,.36-1.46,1.37-2.33,2.74-2.82,.84-.31,1.71-.32,2.59-.17,.16,.03,.19,.09,.19,.24,0,1.37,0,2.74,0,4.11Z"/>
</svg>